# xmcd
# 
# Track frame offsets:
#     150
#     14300
#     33178
#     46347
#     64457
#     85225
#     96865
#     116830
#     137131
#     154262
#     169802
#     181347
# 
# Disc length: 2663
# 
# Revision: 1
# Processed by: cddbd v1.5.2PL0 Copyright (c) Steve Scherf et al.
# Submitted via: fre:ac v1.0.31
# 
DISCID=a00a650c
DTITLE=Jim - Dance With Me
DYEAR=2005
DGENRE=
TTITLE0=Sway
TTITLE1=Hero
TTITLE2=Nah Neh Nah
TTITLE3=Let's Get Loud
TTITLE4=Another Day In Paradise
TTITLE5=Crazy Little Thing Called Love
TTITLE6=I Wonder Why
TTITLE7=Maria
TTITLE8=We've Got Tonight
TTITLE9=Dance With Me
TTITLE10=She's A Lady
TTITLE11=Driving Home For Christmas
EXTD=
EXTT0=
EXTT1=
EXTT2=
EXTT3=
EXTT4=
EXTT5=
EXTT6=
EXTT7=
EXTT8=
EXTT9=
EXTT10=
EXTT11=
PLAYORDER=
